<svg xmlns="http://www.w3.org/2000/svg" width="40" height="57"><path d="M 14.359 0 L 16.923 0 L 16.923 2.545 L 14.359 2.545 Z" fill="rgba(192, 217, 58, 1.00)"></path><path d="M 16.923 0 L 19.487 0 L 19.487 2.545 L 16.923 2.545 Z" fill="rgba(192, 217, 58, 1.00)"></path><path d="M 19.487 0 L 22.051 0 L 22.051 2.545 L 19.487 2.545 Z" fill="rgba(192, 217, 58, 1.00)"></path><path d="M 22.051 0 L 24.615 0 L 24.615 2.545 L 22.051 2.545 Z" fill="rgba(192, 217, 58, 1.00)"></path><path d="M 22.051 2.545 L 24.615 2.545 L 24.615 6.616 L 22.051 6.616 Z" fill="rgba(192, 217, 58, 1.00)"></path><path d="M 24.615 10.179 L 29.744 10.179 L 29.744 13.741 L 24.615 13.741 Z" fill="rgba(67, 193, 80, 1.00)"></path><path d="M 27.692 6.616 L 31.282 6.616 L 31.282 16.795 L 27.692 16.795 Z" fill="rgba(67, 193, 80, 1.00)"></path><path d="M 24.615 23.411 L 28.205 23.411 L 28.205 33.589 L 24.615 33.589 Z" fill="rgba(67, 193, 80, 1.00)"></path><path d="M 17.436 36.643 L 21.538 36.643 L 21.538 40.205 L 17.436 40.205 Z" fill="rgba(70, 189, 93, 1.00)"></path><path d="M 13.846 33.08 L 17.949 33.08 L 17.949 36.643 L 13.846 36.643 Z" fill="rgba(70, 189, 93, 1.00)"></path><path d="M 30.769 19.848 L 34.872 19.848 L 34.872 23.411 L 30.769 23.411 Z" fill="rgba(70, 189, 93, 1.00)"></path><path d="M 27.692 26.464 L 31.282 26.464 L 31.282 33.589 L 27.692 33.589 Z" fill="rgba(67, 193, 80, 1.00)"></path><path d="M 31.282 13.232 L 34.872 13.232 L 34.872 20.357 L 31.282 20.357 Z" fill="rgba(3, 116, 63, 1.00)"></path><path d="M 31.282 23.411 L 34.872 23.411 L 34.872 33.08 L 31.282 33.08 Z" fill="rgba(3, 116, 63, 1.00)"></path><path d="M 27.692 33.08 L 31.282 33.08 L 31.282 36.643 L 27.692 36.643 Z" fill="rgba(3, 116, 63, 1.00)"></path><path d="M 21.538 36.643 L 28.205 36.643 L 28.205 40.205 L 21.538 40.205 Z" fill="rgba(3, 116, 63, 1.00)"></path><path d="M 14.872 39.696 L 24.615 39.696 L 24.615 43.259 L 14.872 43.259 Z" fill="rgba(3, 116, 63, 1.00)"></path><path d="M 17.949 43.259 L 21.026 43.259 L 21.026 46.821 L 17.949 46.821 Z" fill="rgba(73, 36, 13, 1.00)"></path><path d="M 17.949 46.821 L 21.026 46.821 L 21.026 57 L 17.949 57 Z" fill="rgba(110, 63, 16, 1.00)"></path><path d="M 10.769 36.643 L 17.949 36.643 L 17.949 40.205 L 10.769 40.205 Z" fill="rgba(3, 116, 63, 1.00)"></path><path d="M 14.359 23.411 L 17.949 23.411 L 17.949 30.027 L 14.359 30.027 Z" fill="rgba(67, 193, 80, 1.00)"></path><path d="M 21.026 23.411 L 24.615 23.411 L 24.615 30.027 L 21.026 30.027 Z" fill="rgba(67, 193, 80, 1.00)"></path><path d="M 17.949 26.464 L 21.538 26.464 L 21.538 33.08 L 17.949 33.08 Z" fill="rgba(67, 193, 80, 1.00)"></path><path d="M 28.205 16.795 L 31.282 16.795 L 31.282 20.357 L 28.205 20.357 Z" fill="rgba(9, 160, 73, 1.00)"></path><path d="M 21.026 19.848 L 25.128 19.848 L 25.128 23.411 L 21.026 23.411 Z" fill="rgba(9, 160, 73, 1.00)"></path><path d="M 21.026 30.027 L 25.128 30.027 L 25.128 33.589 L 21.026 33.589 Z" fill="rgba(9, 160, 73, 1.00)"></path><path d="M 27.179 30.027 L 31.282 30.027 L 31.282 33.589 L 27.179 33.589 Z" fill="rgba(9, 160, 73, 1.00)"></path><path d="M 27.179 22.902 L 31.282 22.902 L 31.282 26.464 L 27.179 26.464 Z" fill="rgba(9, 160, 73, 1.00)"></path><path d="M 24.103 33.08 L 28.205 33.08 L 28.205 36.643 L 24.103 36.643 Z" fill="rgba(9, 160, 73, 1.00)"></path><path d="M 17.949 33.08 L 24.615 33.08 L 24.615 36.643 L 17.949 36.643 Z" fill="rgba(9, 160, 73, 1.00)"></path><path d="M 11.282 33.08 L 15.385 33.08 L 15.385 36.643 L 11.282 36.643 Z" fill="rgba(9, 160, 73, 1.00)"></path><path d="M 14.359 13.741 L 18.462 13.741 L 18.462 16.795 L 14.359 16.795 Z" fill="rgba(150, 205, 68, 1.00)"></path><path d="M 12.308 16.795 L 21.026 16.795 L 21.026 23.411 L 12.308 23.411 Z" fill="rgba(150, 205, 68, 1.00)"></path><path d="M 7.692 20.357 L 14.359 20.357 L 14.359 33.08 L 7.692 33.08 Z" fill="rgba(150, 205, 68, 1.00)"></path><path d="M 7.692 26.973 L 11.282 26.973 L 11.282 36.643 L 7.692 36.643 Z" fill="rgba(150, 205, 68, 1.00)"></path><path d="M 14.359 23.411 L 17.949 23.411 L 17.949 33.08 L 14.359 33.08 Z" fill="rgba(150, 205, 68, 1.00)"></path><path d="M 21.026 13.232 L 27.692 13.232 L 27.692 16.795 L 21.026 16.795 Z" fill="rgba(150, 205, 68, 1.00)"></path><path d="M 17.949 16.795 L 21.026 16.795 L 21.026 26.464 L 17.949 26.464 Z" fill="rgba(150, 205, 68, 1.00)"></path><path d="M 24.615 3.563 L 28.205 3.563 L 28.205 10.179 L 24.615 10.179 Z" fill="rgba(156, 208, 74, 1.00)"></path><path d="M 21.026 16.795 L 26.154 16.795 L 26.154 20.357 L 21.026 20.357 Z" fill="rgba(67, 193, 80, 1.00)"></path><path d="M 23.077 16.795 L 28.205 16.795 L 28.205 20.357 L 23.077 20.357 Z" fill="rgba(67, 193, 80, 1.00)"></path><path d="M 24.615 19.848 L 31.282 19.848 L 31.282 23.411 L 24.615 23.411 Z" fill="rgba(67, 193, 80, 1.00)"></path><path d="M 14.359 26.464 L 19.487 26.464 L 19.487 30.027 L 14.359 30.027 Z" fill="rgba(67, 193, 80, 1.00)"></path><path d="M 7.179 16.795 L 12.308 16.795 L 12.308 20.357 L 7.179 20.357 Z" fill="rgba(67, 193, 80, 1.00)"></path><path d="M 9.744 9.67 L 14.872 9.67 L 14.872 13.232 L 9.744 13.232 Z" fill="rgba(67, 193, 80, 1.00)"></path><path d="M 17.949 6.616 L 21.538 6.616 L 21.538 13.232 L 17.949 13.232 Z" fill="rgba(156, 208, 74, 1.00)"></path><path d="M 21.538 5.089 L 24.615 5.089 L 24.615 11.705 L 21.538 11.705 Z" fill="rgba(156, 208, 74, 1.00)"></path><path d="M 19.487 2.545 L 22.051 2.545 L 22.051 6.616 L 19.487 6.616 Z" fill="rgba(192, 217, 58, 1.00)"></path><path d="M 16.923 2.545 L 19.487 2.545 L 19.487 5.089 L 16.923 5.089 Z" fill="rgba(192, 217, 58, 1.00)"></path><path d="M 14.359 2.545 L 16.923 2.545 L 16.923 5.089 L 14.359 5.089 Z" fill="rgba(192, 217, 58, 1.00)"></path><path d="M 14.359 5.089 L 16.923 5.089 L 16.923 7.634 L 14.359 7.634 Z" fill="rgba(192, 217, 58, 1.00)"></path><path d="M 16.923 5.089 L 19.487 5.089 L 19.487 7.634 L 16.923 7.634 Z" fill="rgba(192, 217, 58, 1.00)"></path><path d="M 11.795 3.563 L 14.359 3.563 L 14.359 6.107 L 11.795 6.107 Z" fill="rgba(192, 217, 58, 1.00)"></path><path d="M 11.795 6.107 L 14.359 6.107 L 14.359 8.652 L 11.795 8.652 Z" fill="rgba(192, 217, 58, 1.00)"></path><path d="M 11.282 3.563 L 13.846 3.563 L 13.846 6.107 L 11.282 6.107 Z" fill="rgba(192, 217, 58, 1.00)"></path><path d="M 11.282 6.107 L 13.846 6.107 L 13.846 8.652 L 11.282 8.652 Z" fill="rgba(192, 217, 58, 1.00)"></path><path d="M 8.718 7.125 L 11.282 7.125 L 11.282 9.67 L 8.718 9.67 Z" fill="rgba(192, 217, 58, 1.00)"></path><path d="M 8.718 9.67 L 11.282 9.67 L 11.282 12.214 L 8.718 12.214 Z" fill="rgba(192, 217, 58, 1.00)"></path><path d="M 11.282 7.634 L 13.846 7.634 L 13.846 10.179 L 11.282 10.179 Z" fill="rgba(192, 217, 58, 1.00)"></path><path d="M 13.333 7.634 L 15.897 7.634 L 15.897 10.179 L 13.333 10.179 Z" fill="rgba(192, 217, 58, 1.00)"></path><path d="M 15.385 7.634 L 17.949 7.634 L 17.949 10.179 L 15.385 10.179 Z" fill="rgba(192, 217, 58, 1.00)"></path><path d="M 15.385 10.179 L 17.949 10.179 L 17.949 12.723 L 15.385 12.723 Z" fill="rgba(192, 217, 58, 1.00)"></path><path d="M 14.359 10.179 L 16.923 10.179 L 16.923 12.723 L 14.359 12.723 Z" fill="rgba(192, 217, 58, 1.00)"></path><path d="M 14.359 11.196 L 16.923 11.196 L 16.923 13.741 L 14.359 13.741 Z" fill="rgba(192, 217, 58, 1.00)"></path><path d="M 15.385 11.196 L 17.949 11.196 L 17.949 13.741 L 15.385 13.741 Z" fill="rgba(192, 217, 58, 1.00)"></path><path d="M 7.692 9.67 L 11.282 9.67 L 11.282 16.795 L 7.692 16.795 Z" fill="rgba(192, 217, 58, 1.00)"></path><path d="M 11.282 13.232 L 14.872 13.232 L 14.872 16.795 L 11.282 16.795 Z" fill="rgba(192, 217, 58, 1.00)"></path><path d="M 4.103 13.741 L 7.692 13.741 L 7.692 32.571 L 4.103 32.571 Z" fill="rgba(192, 217, 58, 1.00)"></path><path d="M 7.692 7.125 L 10.256 7.125 L 10.256 9.67 L 7.692 9.67 Z" fill="rgba(192, 217, 58, 1.00)"></path><path d="M 17.949 13.232 L 21.026 13.232 L 21.026 16.795 L 17.949 16.795 Z" fill="rgba(192, 217, 58, 1.00)"></path><path d="M 21.026 10.179 L 24.615 10.179 L 24.615 13.232 L 21.026 13.232 Z" fill="rgba(192, 217, 58, 1.00)"></path></svg>